# 3ds Max Wavefront OBJ Exporter v0.97b - (c)2007 guruware
# File Created: 01.10.2015 12:14:19

mtllib 3d-model.mtl

#
# object Group_002
#

v  1989.8674 1287.8148 5544.4287
v  2797.5811 1287.8148 5941.4160
v  2797.5811 1697.5742 5941.4160
v  1989.8674 1697.5742 5544.4287
v  2573.7378 1287.8148 6396.8486
v  1766.0243 1287.8148 5999.8618
v  1766.0243 2068.3088 5999.8618
v  2573.7378 2068.3088 6396.8486
v  3138.3418 2068.3088 5248.1006
v  2330.6284 2068.3088 4851.1133
v  2330.6284 2546.3613 4851.1133
v  3138.3418 2546.3613 5248.1006
v  3221.0337 1287.8148 5079.8545
v  2413.3203 1287.8148 4682.8677
v  2413.3203 1697.5742 4682.8677
v  3221.0337 1697.5742 5079.8545
v  2480.6118 1287.8148 4545.9561
v  3288.3252 1287.8148 4942.9429
v  1437.7383 2546.3613 6667.7954
v  2245.4517 2546.3613 7064.7822
v  1437.7383 0.0000 6667.7954
v  2245.4517 0.0000 7064.7822
v  3966.2568 6751.2720 4017.0332
v  3966.2568 0.0000 4017.0332
v  4248.5586 0.0000 3442.6592
v  4248.5586 6751.2720 3442.6592
v  2799.5593 0.0000 3443.6072
v  2799.5593 6751.2720 3443.6072
v  3081.8613 6751.2720 2869.2332
v  3081.8613 0.0000 2869.2332
v  496.4421 0.0000 8129.5493
v  496.4421 6751.2720 8129.5493
v  778.7441 6751.2720 7555.1753
v  778.7441 0.0000 7555.1753
v  1663.1395 6751.2720 8702.9756
v  1663.1395 0.0000 8702.9756
v  1945.4415 0.0000 8128.6011
v  1945.4415 6751.2720 8128.6011
v  2480.6118 0.0000 4545.9561
v  3288.3252 0.0000 4942.9429
# 40 vertices

vn -0.4411 0.0000 0.8975
vn 0.4411 0.0000 -0.8975
vn 0.0000 1.0000 -0.0000
vn 0.0000 -1.0000 -0.0000
vn 0.8975 0.0000 0.4411
vn -0.8975 0.0000 -0.4411
vn -0.8975 -0.0000 -0.4411
vn 0.8975 -0.0000 0.4411
vn 0.4411 -0.0000 -0.8975
# 9 vertex normals

vt 0.5614 0.8222 0.0000
vt 0.5760 0.8282 0.0000
vt 0.5775 0.8234 0.0000
vt 0.5629 0.8174 0.0000
vt 0.5738 0.8355 0.0000
vt 0.5592 0.8295 0.0000
vt 0.5732 0.8373 0.0000
vt 0.5586 0.8312 0.0000
vt 0.5582 0.8327 0.0000
vt 0.5728 0.8387 0.0000
vt 0.5650 0.8104 0.0000
vt 0.5796 0.8164 0.0000
vt -0.7800 0.9818 0.0000
vt -0.8196 0.0298 0.0000
vt -0.2400 0.0298 0.0000
vt -0.2004 0.9818 0.0000
vt 0.8637 0.0493 0.0000
vt 0.3091 0.0381 0.0000
vt 0.2479 0.9760 0.0000
vt 0.7643 0.9634 0.0000
vt 0.3666 0.7649 0.0000
vt 0.1373 -0.0126 0.0000
vt 0.1511 0.9599 0.0000
vt 0.7517 0.9447 0.0000
vt 0.7440 0.7547 0.0000
vt 0.3594 0.4622 0.0000
vt 0.8094 -0.0357 0.0000
vt 0.5067 0.4578 0.0000
vt 0.7865 0.4495 0.0000
vt 0.7933 0.6079 0.0000
vt 0.5115 0.6159 0.0000
vt 0.8311 0.4482 0.0000
# 32 texture coords

g Group_002
usemtl wire_134006006
s off
f 1/1/1 2/2/1 3/2/1 4/1/1 
f 5/3/2 6/4/2 7/4/2 8/3/2 
f 9/5/2 10/6/2 11/6/2 12/5/2 
f 2/2/3 1/1/3 6/4/3 5/3/3 
f 13/7/2 14/8/2 15/8/2 16/7/2 
f 17/9/3 14/8/3 13/7/3 18/10/3 
f 7/4/4 10/6/4 9/5/4 8/3/4 
f 15/8/3 4/1/3 3/2/3 16/7/3 
f 12/5/3 11/6/3 19/11/3 20/12/3 
f 21/11/1 22/12/1 20/12/1 19/11/1 
f 23/13/5 24/14/5 25/15/5 26/16/5 
f 27/14/6 28/13/6 29/16/6 30/15/6 
f 31/14/6 32/13/6 33/16/6 34/15/6 
f 35/13/5 36/14/5 37/15/5 38/16/5 
f 27/17/1 24/18/1 23/19/1 28/20/1 
f 25/18/2 30/17/2 29/20/2 26/19/2 
f 37/18/2 34/17/2 33/20/2 38/19/2 
f 31/17/1 36/18/1 35/19/1 32/20/1 
f 7/21/7 21/22/7 19/23/7 11/24/7 
f 7/21/7 11/24/7 10/25/7 
f 21/22/7 7/21/7 6/26/7 39/27/7 
f 39/27/7 6/26/7 1/28/7 14/29/7 
f 15/30/7 14/29/7 1/28/7 4/31/7 
f 39/27/7 14/29/7 17/32/7 
f 5/26/8 20/23/8 22/22/8 40/27/8 
f 2/28/8 5/26/8 40/27/8 3/31/8 
f 13/29/8 3/31/8 40/27/8 18/32/8 
f 16/30/8 3/31/8 13/29/8 
f 20/23/8 5/26/8 8/21/8 12/24/8 
f 12/24/8 8/21/8 9/25/8 
f 40/27/9 39/27/9 17/32/9 18/32/9 
# 27 polygons - 4 triangles

#
# object Group_001
#

v  9986.2314 1287.8148 9474.6006
v  10793.9453 1287.8148 9871.5879
v  10793.9453 1697.5742 9871.5879
v  9986.2314 1697.5742 9474.6006
v  10570.1016 1287.8148 10327.0215
v  9762.3887 1287.8148 9930.0342
v  9762.3887 2068.3088 9930.0342
v  10570.1016 2068.3088 10327.0215
v  11134.7061 2068.3088 9178.2734
v  10326.9922 2068.3088 8781.2861
v  10326.9922 2546.3613 8781.2861
v  11134.7061 2546.3613 9178.2734
v  11217.3984 1287.8148 9010.0273
v  10409.6846 1287.8148 8613.0400
v  10409.6846 1697.5742 8613.0400
v  11217.3984 1697.5742 9010.0273
v  10476.9756 1287.8148 8476.1279
v  11284.6895 1287.8148 8873.1152
v  9434.1025 2546.3613 10597.9678
v  10241.8164 2546.3613 10994.9551
v  9434.1025 0.0000 10597.9678
v  10241.8164 0.0000 10994.9551
v  11962.6211 6751.2720 7947.2056
v  11962.6211 0.0000 7947.2056
v  12244.9229 0.0000 7372.8315
v  12244.9229 6751.2720 7372.8315
v  10795.9238 0.0000 7373.7793
v  10795.9238 6751.2720 7373.7793
v  11078.2256 6751.2720 6799.4053
v  11078.2256 0.0000 6799.4053
v  8492.8066 0.0000 12059.7217
v  8492.8066 6751.2720 12059.7217
v  8775.1084 6751.2720 11485.3477
v  8775.1084 0.0000 11485.3477
v  9659.5039 6751.2720 12633.1475
v  9659.5039 0.0000 12633.1475
v  9941.8057 0.0000 12058.7734
v  9941.8057 6751.2720 12058.7734
v  10476.9756 0.0000 8476.1279
v  11284.6895 0.0000 8873.1152
# 40 vertices

vn -0.4411 0.0000 0.8975
vn 0.4411 0.0000 -0.8975
vn 0.0000 1.0000 -0.0000
vn 0.0000 -1.0000 -0.0000
vn 0.8975 0.0000 0.4411
vn -0.8975 0.0000 -0.4411
vn -0.8975 -0.0000 -0.4411
vn 0.8975 -0.0000 0.4411
vn 0.4411 -0.0000 -0.8975
# 9 vertex normals

vt 0.5614 0.8222 0.0000
vt 0.5760 0.8282 0.0000
vt 0.5775 0.8234 0.0000
vt 0.5629 0.8174 0.0000
vt 0.5738 0.8355 0.0000
vt 0.5592 0.8295 0.0000
vt 0.5732 0.8373 0.0000
vt 0.5586 0.8312 0.0000
vt 0.5582 0.8327 0.0000
vt 0.5728 0.8387 0.0000
vt 0.5650 0.8104 0.0000
vt 0.5796 0.8164 0.0000
vt -0.7800 0.9818 0.0000
vt -0.8196 0.0298 0.0000
vt -0.2400 0.0298 0.0000
vt -0.2004 0.9818 0.0000
vt 0.8637 0.0493 0.0000
vt 0.3091 0.0381 0.0000
vt 0.2479 0.9760 0.0000
vt 0.7643 0.9634 0.0000
vt 0.3666 0.7649 0.0000
vt 0.1373 -0.0126 0.0000
vt 0.1511 0.9599 0.0000
vt 0.7517 0.9447 0.0000
vt 0.7440 0.7547 0.0000
vt 0.3594 0.4622 0.0000
vt 0.8094 -0.0357 0.0000
vt 0.5067 0.4578 0.0000
vt 0.7865 0.4495 0.0000
vt 0.7933 0.6079 0.0000
vt 0.5115 0.6159 0.0000
vt 0.8311 0.4482 0.0000
# 32 texture coords

g Group_001
usemtl wire_224198087
s off
f 41/33/10 42/34/10 43/34/10 44/33/10 
f 45/35/11 46/36/11 47/36/11 48/35/11 
f 49/37/11 50/38/11 51/38/11 52/37/11 
f 42/34/12 41/33/12 46/36/12 45/35/12 
f 53/39/11 54/40/11 55/40/11 56/39/11 
f 57/41/12 54/40/12 53/39/12 58/42/12 
f 47/36/13 50/38/13 49/37/13 48/35/13 
f 55/40/12 44/33/12 43/34/12 56/39/12 
f 52/37/12 51/38/12 59/43/12 60/44/12 
f 61/43/10 62/44/10 60/44/10 59/43/10 
f 63/45/14 64/46/14 65/47/14 66/48/14 
f 67/46/15 68/45/15 69/48/15 70/47/15 
f 71/46/15 72/45/15 73/48/15 74/47/15 
f 75/45/14 76/46/14 77/47/14 78/48/14 
f 67/49/10 64/50/10 63/51/10 68/52/10 
f 65/50/11 70/49/11 69/52/11 66/51/11 
f 77/50/11 74/49/11 73/52/11 78/51/11 
f 71/49/10 76/50/10 75/51/10 72/52/10 
f 47/53/16 61/54/16 59/55/16 51/56/16 
f 47/53/16 51/56/16 50/57/16 
f 61/54/16 47/53/16 46/58/16 79/59/16 
f 79/59/16 46/58/16 41/60/16 54/61/16 
f 55/62/16 54/61/16 41/60/16 44/63/16 
f 79/59/16 54/61/16 57/64/16 
f 45/58/17 60/55/17 62/54/17 80/59/17 
f 42/60/17 45/58/17 80/59/17 43/63/17 
f 53/61/17 43/63/17 80/59/17 58/64/17 
f 56/62/17 43/63/17 53/61/17 
f 60/55/17 45/58/17 48/53/17 52/56/17 
f 52/56/17 48/53/17 49/57/17 
f 80/59/18 79/59/18 57/64/18 58/64/18 
# 27 polygons - 4 triangles

#
# object Layer0_001
#

v  -2799.6758 6820.6499 -3785.3047
v  -8533.9346 6820.6499 7881.6689
v  -8849.9570 7999.1670 7726.3452
v  -3115.6987 7999.1670 -3940.6284
v  15345.7061 9249.1670 -16548.2813
v  13349.6436 9249.1670 -16422.8438
v  13374.7314 9249.1670 -16023.6289
v  15370.7930 9249.1670 -16149.0664
v  13374.7314 189.1675 -16023.6289
v  13349.6436 189.1675 -16422.8438
v  15370.7930 189.1675 -16149.0664
v  15345.7061 189.1675 -16548.2813
v  -2663.2202 6822.6270 -3718.2378
v  6927.0806 6961.5947 995.3466
v  12735.2793 7045.7583 3850.0469
v  13569.8467 7057.8516 4260.2319
v  14467.5645 7070.8599 4701.4561
v  14618.5400 7073.0483 4775.6597
v  14833.4912 7999.1670 4881.3071
v  12674.8359 7999.1670 3820.3391
v  13581.2695 7999.1670 4265.8472
v  8884.2822 7073.0483 16442.6328
v  8733.3066 7070.8599 16368.4297
v  -8397.4795 6822.6270 7948.7358
v  13235.2402 6829.8291 4095.7751
v  13155.2471 6821.8247 4056.4587
v  13075.0947 6827.5083 4017.0640
v  12996.6563 6846.7466 3978.5122
v  13313.2021 6851.3330 4134.0928
v  12921.7705 6879.0894 3941.7061
v  13387.3086 6885.8354 4170.5156
v  12852.1875 6923.7808 3907.5063
v  13455.8252 6932.5273 4204.1914
v  12789.5352 6979.7734 3876.7129
v  13517.1494 6990.3169 4234.3320
v  -8397.4795 6557.3594 7948.7358
v  8733.3066 6799.5996 16368.4297
v  9099.2334 7999.1670 16548.2813
v  -5669.9346 7999.1670 9289.3086
v  -6881.5049 7999.1670 8693.8301
v  -2663.2202 6557.3594 -3718.2378
v  6927.0806 6692.9727 995.3466
v  14467.5645 6799.5996 4701.4561
v  -2887.5176 7499.1670 -3271.3506
v  14164.2129 7499.1670 5109.4888
v  14164.2129 7999.1670 5109.4888
v  -2887.5176 7999.1670 -3271.3506
v  8871.0518 7499.1670 15879.0039
v  -8180.6787 7499.1670 7498.1636
v  -8180.6787 7999.1670 7498.1636
v  8871.0518 7999.1670 15879.0039
v  -5534.0981 7999.1670 2113.4067
v  11517.6318 7999.1670 10494.2461
v  -8148.1650 6169.3340 -8324.1680
v  -15370.7930 6169.3340 6371.0532
v  -8918.0586 6169.3340 9542.5391
v  -1695.4309 6169.3340 -5152.6821
v  12724.4277 8087.0195 3844.7129
v  13531.6787 8087.0195 4241.4731
v  12787.5732 8163.3125 3875.7490
v  13468.5322 8163.3125 4210.4370
v  13393.9512 8225.4844 4173.7808
v  12862.1543 8225.4844 3912.4053
v  13310.4404 8271.4473 4132.7354
v  12945.6660 8271.4473 3953.4504
v  13035.3018 8299.6572 3997.5063
v  13220.8037 8299.6572 4088.6797
v  13128.0527 8309.1680 4043.0930
v  -6800.8496 8089.7427 8733.4707
v  -5750.5913 8089.7427 9249.6680
v  -6709.3965 8166.5342 8778.4199
v  -5842.0430 8166.5342 9204.7188
v  -6609.0283 8227.9629 8827.7500
v  -5942.4121 8227.9629 9155.3887
v  -6501.8076 8272.7637 8880.4492
v  -6049.6323 8272.7637 9102.6895
v  -6389.9385 8300.0195 8935.4316
v  -6161.5024 8300.0195 9047.7070
v  -6275.7202 8309.1680 8991.5703
v  -15370.7930 199.1675 6371.0532
v  -8918.0586 199.1675 9542.5391
v  -1695.4309 199.1675 -5152.6821
v  -8148.1650 199.1675 -8324.1680
# 83 vertices

vn -0.8599 -0.2863 -0.4226
vn 0.0000 1.0000 -0.0000
vn -0.9980 -0.0000 0.0627
vn 0.9980 -0.0000 -0.0627
vn 0.4411 -0.0000 -0.8975
vn 0.0117 -0.9999 0.0057
vn -0.4411 -0.0000 0.8975
vn -0.8975 -0.0000 -0.4411
vn -0.4411 0.0000 0.8975
vn 0.4411 0.0000 -0.8975
vn 0.8975 0.0000 0.4411
vn 0.0366 0.9965 -0.0745
vn -0.0366 0.9965 0.0745
vn -0.0627 -0.0000 -0.9980
vn 0.0627 -0.0000 0.9980
vn 0.8689 -0.2504 0.4270
vn 0.8975 -0.0000 0.4411
vn 0.0114 -0.9999 0.0056
vn -0.8975 0.0000 -0.4411
# 19 vertex normals

vt 0.0000 0.0000 0.0000
vt 1.9806 0.7964 0.0000
vt 1.9840 0.7962 0.0000
vt 1.9941 0.8828 0.0000
vt 1.6847 0.8221 0.0000
vt 1.4260 0.8445 0.0000
vt 1.3816 0.8484 0.0000
vt 1.3313 0.8527 0.0000
vt 1.3226 0.8535 0.0000
vt 1.3154 0.9599 0.0000
vt 1.4340 0.9464 0.0000
vt 1.3860 0.9519 0.0000
vt 0.5830 1.2198 0.0000
vt 0.5827 1.2038 0.0000
vt 1.0260 1.1509 0.0000
vt 1.0262 1.1669 0.0000
vt 0.5550 -0.6200 0.0000
vt 0.5548 -0.6345 0.0000
vt 0.9980 -0.6874 0.0000
vt 0.9983 -0.6729 0.0000
vt 1.3985 0.8224 0.0000
vt 1.4027 0.8214 0.0000
vt 1.4070 0.8218 0.0000
vt 1.4113 0.8237 0.0000
vt 1.3944 0.8250 0.0000
vt 1.4154 0.8270 0.0000
vt 1.3906 0.8289 0.0000
vt 1.4193 0.8317 0.0000
vt 1.3871 0.8342 0.0000
vt 1.4229 0.8376 0.0000
vt 1.3841 0.8408 0.0000
vt 0.3279 0.8488 0.0000
vt 0.3276 0.8235 0.0000
vt 0.9788 0.7690 0.0000
vt 0.9792 0.7949 0.0000
vt 0.3125 0.9633 0.0000
vt 0.3228 0.8493 0.0000
vt 0.9849 0.7944 0.0000
vt 0.9944 0.8819 0.0000
vt 0.4333 0.9489 0.0000
vt 0.3872 0.9543 0.0000
vt 0.7759 0.7887 0.0000
vt 0.7759 0.7937 0.0000
vt 0.6879 0.7977 0.0000
vt 0.6878 0.7927 0.0000
vt 0.8258 0.7859 0.0000
vt 0.6963 0.7967 0.0000
vt 0.6964 0.8057 0.0000
vt 0.8260 0.7950 0.0000
vt 0.9289 0.7770 0.0000
vt 0.6921 0.7930 0.0000
vt 0.6925 0.8186 0.0000
vt 0.9259 0.7779 0.0000
vt 0.9229 0.7801 0.0000
vt 0.9202 0.7836 0.0000
vt 0.9176 0.7881 0.0000
vt 0.9153 0.7938 0.0000
vt 0.9133 0.8003 0.0000
vt 0.9320 0.7774 0.0000
vt 0.9350 0.7791 0.0000
vt 0.9378 0.7821 0.0000
vt 0.9405 0.7862 0.0000
vt 0.9429 0.7915 0.0000
vt 0.9450 0.7977 0.0000
vt 0.2928 0.6441 0.0000
vt 0.6007 0.7718 0.0000
vt 0.6989 0.4513 0.0000
vt 0.3910 0.3236 0.0000
vt 0.3275 0.5310 0.0000
vt 0.3621 0.4179 0.0000
vt 0.3685 0.4221 0.0000
vt 0.2992 0.6483 0.0000
vt 0.6353 0.6587 0.0000
vt 0.6700 0.5456 0.0000
vt 0.3550 0.3942 0.0000
vt 0.3455 0.3895 0.0000
vt 0.3734 0.3693 0.0000
vt 0.5974 0.2192 0.0000
vt 0.3907 0.3569 0.0000
vt 0.6006 0.2054 0.0000
vt 0.6356 0.3299 0.0000
vt 0.6834 0.4451 0.0000
vt 0.6738 0.4405 0.0000
vt 0.6656 0.4579 0.0000
vt 0.6527 0.4672 0.0000
vt 0.4315 0.6154 0.0000
vt 0.4283 0.6292 0.0000
vt 0.3932 0.5048 0.0000
vt 0.3569 0.7202 0.0000
vt 0.2526 0.4183 0.0000
vt 0.3443 0.3521 0.0000
vt 0.4486 0.6540 0.0000
vt 0.9116 0.0254 0.0000
vt 0.9935 0.0253 0.0000
vt 0.9894 0.9852 0.0000
vt 0.9076 0.9678 0.0000
vt 0.8771 0.6024 0.0000
vt 0.6110 0.7078 0.0000
vt 0.6090 0.6189 0.0000
vt 0.8761 0.5376 0.0000
vt 0.6084 0.5926 0.0000
vt 0.8758 0.5185 0.0000
vt 1.4319 0.9561 0.0000
vt 1.3892 0.9611 0.0000
vt 1.4290 0.9646 0.0000
vt 1.3930 0.9691 0.0000
vt 1.3973 0.9753 0.0000
vt 1.4254 0.9718 0.0000
vt 1.4020 0.9797 0.0000
vt 1.4213 0.9772 0.0000
vt 1.4168 0.9809 0.0000
vt 1.4070 0.9822 0.0000
vt 1.4119 0.9825 0.0000
vt 0.5293 0.3170 0.0000
vt 0.5511 0.3261 0.0000
vt 0.5493 0.3277 0.0000
vt 0.5303 0.3198 0.0000
vt 0.5473 0.3288 0.0000
vt 0.5316 0.3223 0.0000
vt 0.5452 0.3295 0.0000
vt 0.5331 0.3245 0.0000
vt 0.5430 0.3298 0.0000
vt 0.5349 0.3264 0.0000
vt 0.5409 0.3296 0.0000
vt 0.5368 0.3279 0.0000
vt 0.5388 0.3290 0.0000
vt 0.9169 0.3411 0.0000
vt 0.0582 0.2934 0.0000
vt 0.0741 0.9548 0.0000
vt 0.9301 0.8922 0.0000
vt -0.0416 0.2397 0.0000
vt -0.0442 0.8933 0.0000
vt -0.1303 0.9022 0.0000
vt -0.1311 0.1207 0.0000
vt 0.0233 0.9621 0.0000
vt 0.0175 0.0699 0.0000
vt 0.9759 0.0883 0.0000
vt 0.9803 0.8878 0.0000
# 138 texture coords

g Layer0_001
usemtl wire_134006006
s off
f 81/65/19 82/65/19 83/65/19 84/65/19 
f 85/65/20 86/65/20 87/65/20 88/65/20 
f 89/65/21 87/65/21 86/65/21 90/65/21 
f 88/65/22 91/65/22 92/65/22 85/65/22 
f 93/66/23 81/67/23 84/68/23 94/69/23 
f 95/70/23 94/69/23 84/68/23 96/71/23 
f 97/72/23 96/71/23 84/68/23 98/73/23 
f 99/74/23 98/73/23 84/68/23 100/75/23 
f 99/74/23 100/75/23 101/76/23 
f 102/77/24 103/78/24 97/79/24 98/80/24 
f 104/81/24 82/82/24 81/83/24 93/84/24 
f 105/85/23 106/86/23 107/87/23 108/88/23 
f 109/89/23 105/85/23 108/88/23 110/90/23 
f 111/91/23 109/89/23 110/90/23 112/92/23 
f 113/93/23 111/91/23 112/92/23 114/94/23 
f 115/95/23 113/93/23 114/94/23 95/70/23 
f 115/95/23 95/70/23 96/71/23 
f 104/96/25 116/97/25 117/98/25 103/99/25 
f 104/96/25 103/99/25 83/100/25 82/101/25 
f 83/100/25 103/99/25 102/102/25 118/103/25 
f 83/100/25 118/103/25 119/104/25 120/105/25 
f 116/106/26 104/107/26 93/108/26 121/109/26 
f 122/110/23 121/111/23 93/112/23 94/113/23 
f 106/114/23 123/98/23 122/115/23 94/116/23 
f 107/117/23 106/114/23 94/116/23 108/118/23 
f 110/119/23 108/118/23 94/116/23 112/120/23 
f 114/121/23 112/120/23 94/116/23 95/122/23 
f 123/98/23 106/114/23 105/123/23 97/99/23 
f 97/99/23 105/123/23 109/124/23 111/125/23 
f 97/99/23 111/125/23 113/126/23 115/127/23 
f 97/99/23 115/127/23 96/128/23 
f 124/129/27 125/130/27 126/130/27 127/129/27 
f 128/131/28 129/132/28 130/132/28 131/131/28 
f 132/133/29 130/134/29 129/135/29 
f 127/129/29 132/133/29 124/136/29 
f 125/130/26 133/137/26 126/130/26 
f 133/137/26 128/138/26 131/138/26 
f 130/139/20 83/140/20 120/141/20 131/142/20 
f 131/142/20 120/141/20 119/143/20 118/144/20 
f 133/145/20 131/142/20 118/144/20 99/146/20 
f 126/147/20 133/145/20 99/146/20 101/148/20 
f 126/147/20 101/148/20 100/149/20 127/150/20 
f 127/150/20 100/149/20 84/151/20 132/152/20 
f 130/139/20 132/152/20 84/151/20 83/140/20 
f 124/150/30 132/152/30 133/145/30 125/147/30 
f 132/152/31 129/139/31 128/142/31 133/145/31 
f 134/153/20 135/154/20 136/155/20 137/156/20 
f 92/157/32 90/158/32 86/159/32 85/160/32 
f 89/157/33 91/158/33 88/159/33 87/160/33 
f 99/161/34 118/162/34 102/163/34 98/164/34 
f 103/163/35 117/165/35 123/166/35 97/164/35 
f 101/76/28 100/75/28 138/167/28 139/168/28 
f 139/168/28 138/167/28 140/169/28 141/170/28 
f 142/171/28 141/170/28 140/169/28 143/172/28 
f 144/173/28 142/171/28 143/172/28 145/174/28 
f 144/173/28 145/174/28 146/175/28 147/176/28 
f 147/176/28 146/175/28 148/177/28 
f 119/178/28 120/179/28 149/180/28 150/181/28 
f 150/181/28 149/180/28 151/182/28 152/183/28 
f 152/183/28 151/182/28 153/184/28 154/185/28 
f 154/185/28 153/184/28 155/186/28 156/187/28 
f 156/187/28 155/186/28 157/188/28 158/189/28 
f 158/189/28 157/188/28 159/190/28 
f 160/191/25 161/192/25 136/193/25 135/194/25 
f 162/192/23 163/191/23 134/194/23 137/193/23 
f 117/65/36 116/65/36 121/65/36 122/65/36 
f 117/65/36 122/65/36 123/65/36 
f 160/195/37 135/196/37 134/197/37 163/198/37 
f 136/199/35 161/200/35 162/201/35 137/202/35 
# 59 polygons - 10 triangles

